<svg width="512" height="512" viewBox="0 0 512 512" fill="none" xmlns="http://www.w3.org/2000/svg">
<rect width="512" height="512" transform="matrix(1 0 0 -1 0 512)" fill="black"/>
<path d="M24.0922 295.728V219.205H46.5768C51.1745 219.205 54.8904 220.055 57.7246 221.756C60.6218 223.456 62.7317 225.944 64.0543 229.219C65.4399 232.431 66.1327 236.336 66.1327 240.934C66.1327 245.91 65.2824 249.94 63.5819 253.027C61.8814 256.05 59.4881 258.254 56.402 259.64C53.3788 261.025 49.7889 261.718 45.6321 261.718H38.0742V295.728H24.0922ZM38.0742 251.893H43.3647C45.884 251.893 47.8364 251.546 49.222 250.854C50.6706 250.098 51.6468 248.933 52.1507 247.358C52.7175 245.721 53.0009 243.548 53.0009 240.839C53.0009 238.068 52.7805 235.832 52.3396 234.132C51.9617 232.368 51.08 231.077 49.6944 230.259C48.3718 229.44 46.2619 229.03 43.3647 229.03H38.0742V251.893ZM74.1127 295.728L89.4174 219.205H104.344L119.649 295.728H106.706L103.683 278.062H90.3621L87.2445 295.728H74.1127ZM91.7792 269.181H102.171L96.9752 237.061L91.7792 269.181ZM135.847 295.728V219.205H145.578L164.189 262.852V219.205H175.715V295.728H166.456L147.751 250.003V295.728H135.847ZM216.614 296.768C211.198 296.768 206.883 295.76 203.671 293.744C200.459 291.729 198.16 288.832 196.775 285.053C195.389 281.274 194.696 276.802 194.696 271.638V243.012C194.696 237.848 195.389 233.439 196.775 229.786C198.16 226.07 200.459 223.236 203.671 221.284C206.883 219.331 211.198 218.355 216.614 218.355C222.157 218.355 226.502 219.331 229.651 221.284C232.864 223.236 235.162 226.07 236.548 229.786C237.997 233.439 238.721 237.848 238.721 243.012V271.732C238.721 276.834 237.997 281.274 236.548 285.053C235.162 288.769 232.864 291.666 229.651 293.744C226.502 295.76 222.157 296.768 216.614 296.768ZM216.614 286.47C218.945 286.47 220.645 285.966 221.716 284.958C222.849 283.951 223.605 282.565 223.983 280.802C224.361 279.038 224.55 277.117 224.55 275.039V239.8C224.55 237.659 224.361 235.738 223.983 234.037C223.605 232.337 222.849 231.014 221.716 230.07C220.645 229.062 218.945 228.558 216.614 228.558C214.41 228.558 212.741 229.062 211.607 230.07C210.473 231.014 209.718 232.337 209.34 234.037C208.962 235.738 208.773 237.659 208.773 239.8V275.039C208.773 277.117 208.93 279.038 209.245 280.802C209.623 282.565 210.379 283.951 211.513 284.958C212.646 285.966 214.347 286.47 216.614 286.47ZM257.566 295.728V219.205H275.894C281.058 219.205 285.404 219.835 288.931 221.095C292.521 222.291 295.229 224.37 297.056 227.33C298.945 230.29 299.89 234.321 299.89 239.422C299.89 242.509 299.607 245.28 299.04 247.736C298.473 250.192 297.497 252.302 296.111 254.066C294.788 255.766 292.93 257.089 290.537 258.034L301.213 295.728H287.231L277.972 260.679H271.548V295.728H257.566ZM271.548 251.893H275.894C278.602 251.893 280.743 251.515 282.318 250.759C283.956 249.94 285.121 248.681 285.813 246.98C286.506 245.217 286.853 242.981 286.853 240.273C286.853 236.431 286.128 233.565 284.68 231.676C283.294 229.723 280.617 228.747 276.65 228.747H271.548V251.893ZM315.152 295.728L330.456 219.205H345.383L360.688 295.728H347.745L344.722 278.062H331.401L328.284 295.728H315.152ZM332.818 269.181H343.21L338.014 237.061L332.818 269.181ZM376.697 295.728L378.02 219.205H392.474L403.339 272.205L414.675 219.205H428.657L430.075 295.728H419.683L418.549 242.54L407.684 295.728H399.276L388.223 242.351L387.184 295.728H376.697ZM446.004 295.728L461.309 219.205H476.236L491.54 295.728H478.598L475.574 278.062H462.254L459.136 295.728H446.004ZM463.671 269.181H474.063L468.867 237.061L463.671 269.181Z" fill="white"/>
<path d="M192.232 317.358V322.932H168.33V317.358H192.232ZM185.807 322.932H192.232L173.809 370.641H167.385L185.807 322.932ZM191.759 370.641V376.215H167.385V370.641H191.759ZM175.888 314.524L167.858 302.526H175.038L179.95 310.462L184.957 302.526H192.137L184.107 314.524H175.888ZM217.025 355.714V361.288H200.587V355.714H217.025ZM223.732 376.215H217.214L208.428 321.988L200.681 376.215H194.162L203.326 317.453H213.624L223.732 376.215ZM230.324 317.453H248.935C251.455 317.453 253.313 318.083 254.509 319.342C255.769 320.539 256.399 322.397 256.399 324.916V341.827C256.399 343.213 256.084 344.315 255.454 345.133C254.824 345.889 253.974 346.33 252.903 346.456C253.974 346.645 254.824 347.086 255.454 347.779C256.084 348.409 256.399 349.416 256.399 350.802V368.752C256.399 371.271 255.769 373.16 254.509 374.42C253.313 375.617 251.455 376.215 248.935 376.215H230.324V317.453ZM249.88 367.713V351.936C249.88 350.676 249.691 349.889 249.313 349.574C248.998 349.196 248.211 349.007 246.951 349.007H236.843V370.641H246.951C248.211 370.641 248.998 370.452 249.313 370.074C249.691 369.696 249.88 368.909 249.88 367.713ZM249.88 340.504V325.955C249.88 324.696 249.691 323.909 249.313 323.594C248.998 323.216 248.211 323.027 246.951 323.027H236.843V343.433H246.951C248.211 343.433 248.998 343.244 249.313 342.866C249.691 342.488 249.88 341.701 249.88 340.504ZM267.25 317.453H273.674V376.215H267.25V317.453ZM304.306 317.453H310.258V376.215H303.172L290.985 330.679V376.215H285.034V317.453H292.591L304.306 361.383V317.453ZM333.966 358.265H327.542L315.922 317.453H322.441L330.754 351.936L338.595 317.453H345.114L333.966 358.265ZM327.542 354.581H333.966V376.215H327.542V354.581Z" fill="white"/>
<line x1="129.544" y1="130.317" x2="313.566" y2="130.317" stroke="white" stroke-width="10.6413"/>
<line x1="198.223" y1="192.483" x2="382.245" y2="192.483" stroke="white" stroke-width="10.6413"/>
<line x1="104.806" y1="161.384" x2="406.983" y2="161.384" stroke="white" stroke-width="10.6413"/>
</svg>
